<svg width="100" height="100" viewBox="0 0 100 100" fill="none" xmlns="http://www.w3.org/2000/svg">
<circle cx="50" cy="50" r="50" fill="#0D6EFD"/>
<path d="M39.6357 65.7469C41.7785 65.7469 43.6507 65.0976 45.2524 63.7989C46.8541 62.5003 47.7415 60.8769 47.9146 58.929H53.5962C53.488 60.9419 52.7954 62.8574 51.5184 64.6755C50.2414 66.4936 48.5315 67.9438 46.3887 69.026C44.2676 70.1082 42.0166 70.6493 39.6357 70.6493C34.8523 70.6493 31.0429 69.0585 28.2075 65.8768C25.3938 62.6734 23.9869 58.3013 23.9869 52.7604V51.7539C23.9869 48.3341 24.6146 45.2931 25.87 42.6308C27.1253 39.9686 28.9218 37.9016 31.2594 36.4298C33.6186 34.958 36.3999 34.2221 39.6032 34.2221C43.5425 34.2221 46.8108 35.4017 49.4081 37.7609C52.027 40.1201 53.4231 43.1828 53.5962 46.9489H47.9146C47.7415 44.6762 46.8757 42.8148 45.3173 41.3647C43.7806 39.8928 41.8759 39.1569 39.6032 39.1569C36.5514 39.1569 34.1813 40.2608 32.4931 42.4685C30.8265 44.6546 29.9932 47.8255 29.9932 51.9812V53.1175C29.9932 57.165 30.8265 60.2817 32.4931 62.4678C34.1597 64.6539 36.5406 65.7469 39.6357 65.7469ZM77.3292 40.2608C76.4201 40.1093 75.4353 40.0335 74.3747 40.0335C70.4355 40.0335 67.7624 41.711 66.3555 45.0658V70H60.3493V34.8714H66.1932L66.2906 38.9297C68.2602 35.7913 71.0523 34.2221 74.6669 34.2221C75.8357 34.2221 76.7231 34.3736 77.3292 34.6766V40.2608Z" fill="white"/>
</svg>
